<?xml version="1.0" encoding="UTF-8" standalone="no"?>
<!DOCTYPE svg PUBLIC "-//W3C//DTD SVG 1.1//EN" "http://www.w3.org/Graphics/SVG/1.1/DTD/svg11.dtd">
<svg width="100%" height="100%" viewBox="0 0 299 299" version="1.1" xmlns="http://www.w3.org/2000/svg" xmlns:xlink="http://www.w3.org/1999/xlink" xml:space="preserve" xmlns:serif="http://www.serif.com/" style="fill-rule:evenodd;clip-rule:evenodd;stroke-linejoin:round;stroke-miterlimit:1.41421;">
    <g>
        <path d="M118.021,176.255L191.037,103.237C203.994,90.28 203.994,69.082 191.037,56.125L164.588,29.677L91.572,102.692C77.877,116.384 78.609,136.847 91.569,149.804L96.404,154.639C92.813,141.239 96.763,130.838 108.239,119.358L164.588,63.013L174.367,72.794C178.124,76.551 178.124,82.813 174.367,86.571L101.351,159.586C88.39,172.547 88.39,193.738 101.351,206.702L164.588,269.932L191.037,243.485C203.994,230.527 203.994,209.33 191.04,196.372L177.808,183.14L190.781,170.168C204.472,156.473 203.741,136.013 190.781,123.055L185.945,118.22C189.537,131.617 185.59,142.019 174.111,153.496L165.769,161.843L144.469,183.143L174.367,213.042C178.124,216.798 178.124,223.058 174.367,226.815L164.588,236.596L118.021,190.032C114.26,186.271 114.26,180.015 118.021,176.255ZM149.195,0.609C190.392,0.609 227.696,17.312 254.692,44.308C281.688,71.304 298.39,108.608 298.39,149.804C298.39,191.002 281.688,228.305 254.692,255.301C227.696,282.297 190.392,299 149.195,299C107.999,299 70.694,282.297 43.698,255.301C16.702,228.305 0,191.002 0,149.804C0,108.608 16.702,71.304 43.698,44.308C70.694,17.312 107.999,0.609 149.195,0.609Z" style="fill:rgb(0,173,254);"/>
    </g>
</svg>
