<?xml version="1.0" encoding="UTF-8" standalone="no"?>
<!DOCTYPE svg PUBLIC "-//W3C//DTD SVG 1.1//EN" "http://www.w3.org/Graphics/SVG/1.1/DTD/svg11.dtd">
<svg width="100%" height="100%" viewBox="0 0 306 85" version="1.1" xmlns="http://www.w3.org/2000/svg" xmlns:xlink="http://www.w3.org/1999/xlink" xml:space="preserve" xmlns:serif="http://www.serif.com/" style="fill-rule:evenodd;clip-rule:evenodd;stroke-linejoin:round;stroke-miterlimit:2;">
    <g>
        <path d="M33.379,50.285L54.03,29.634C57.694,25.969 57.694,19.974 54.03,16.309L46.549,8.829L25.899,29.479C22.025,33.352 22.232,39.14 25.898,42.804L27.265,44.171C26.25,40.382 27.367,37.44 30.612,34.193L46.549,18.257L49.315,21.023C50.377,22.086 50.377,23.857 49.315,24.92L28.664,45.571C24.999,49.236 24.999,55.23 28.664,58.896L46.549,76.78L54.03,69.299C57.694,65.634 57.694,59.639 54.03,55.975L50.289,52.233L53.957,48.564C57.83,44.69 57.623,38.904 53.957,35.239L52.59,33.872C53.606,37.661 52.489,40.602 49.243,43.848L46.883,46.209L40.859,52.234L49.315,60.689C50.377,61.752 50.377,63.522 49.315,64.584L46.549,67.351L33.379,54.181C32.315,53.118 32.315,51.349 33.379,50.285ZM42.196,0.608C53.847,0.608 64.398,5.332 72.033,12.967C79.668,20.602 84.392,31.153 84.392,42.804C84.392,54.456 79.668,65.006 72.033,72.641C64.398,80.277 53.847,85 42.196,85C30.544,85 19.994,80.277 12.358,72.641C4.724,65.006 0,54.456 0,42.804C0,31.153 4.724,20.602 12.358,12.967C19.994,5.332 30.544,0.608 42.196,0.608Z" style="fill:rgb(0,173,254);"/>
        <path d="M298.688,39.96L279.367,14.967L273.488,14.967L273.488,51.115L279.788,51.115L279.788,25.398L299.678,51.115L304.988,51.115L304.988,14.967L298.688,14.967L298.688,39.96ZM256.332,14.967L256.332,51.115L262.632,51.115L262.632,14.967L256.332,14.967ZM240.569,26.767C240.569,28.634 239.898,30.123 238.547,31.225C237.204,32.335 235.389,32.886 233.108,32.886L223.787,32.886L223.787,20.699L233.057,20.699C235.44,20.699 237.291,21.207 238.599,22.231C239.915,23.247 240.569,24.761 240.569,26.767ZM248.161,51.115L238.401,37.43C239.675,37.086 240.837,36.596 241.887,35.958C242.937,35.322 243.84,34.547 244.598,33.635C245.355,32.723 245.949,31.672 246.379,30.485C246.81,29.297 247.024,27.946 247.024,26.431C247.024,24.675 246.715,23.083 246.095,21.654C245.476,20.226 244.589,19.021 243.436,18.039C242.282,17.059 240.871,16.301 239.201,15.768C237.531,15.234 235.664,14.967 233.599,14.967L217.487,14.967L217.487,51.115L223.787,51.115L223.787,38.515L231.766,38.515L240.673,51.115L248.161,51.115ZM201.983,33.092C201.983,34.848 201.683,36.509 201.079,38.076C200.478,39.642 199.643,41.002 198.575,42.155C197.508,43.308 196.226,44.22 194.728,44.892C193.23,45.563 191.587,45.899 189.797,45.899C188.007,45.899 186.354,45.554 184.839,44.866C183.324,44.177 182.024,43.248 180.94,42.078C179.855,40.907 179.013,39.539 178.41,37.972C177.808,36.406 177.506,34.745 177.506,32.989C177.506,31.233 177.808,29.572 178.41,28.006C179.013,26.44 179.848,25.08 180.914,23.927C181.981,22.773 183.264,21.861 184.762,21.19C186.259,20.518 187.903,20.183 189.693,20.183C191.483,20.183 193.136,20.527 194.65,21.215C196.165,21.904 197.465,22.833 198.55,24.004C199.634,25.174 200.478,26.543 201.079,28.109C201.683,29.676 201.983,31.337 201.983,33.092ZM208.645,32.989C208.645,30.442 208.18,28.032 207.251,25.76C206.321,23.488 205.03,21.508 203.378,19.821C201.725,18.134 199.745,16.8 197.439,15.819C195.133,14.838 192.585,14.348 189.797,14.348C187.008,14.348 184.461,14.847 182.154,15.845C179.848,16.843 177.851,18.195 176.164,19.899C174.477,21.603 173.169,23.591 172.239,25.863C171.31,28.135 170.845,30.545 170.845,33.092C170.845,35.64 171.31,38.05 172.239,40.322C173.169,42.594 174.46,44.574 176.112,46.26C177.765,47.948 179.744,49.282 182.051,50.262C184.357,51.244 186.904,51.734 189.693,51.734C192.481,51.734 195.029,51.235 197.336,50.237C199.643,49.239 201.639,47.887 203.326,46.183C205.013,44.479 206.321,42.491 207.251,40.219C208.18,37.946 208.645,35.537 208.645,32.989ZM141.398,51.115L166.701,51.115L166.701,45.382L147.698,45.382L147.698,14.967L141.398,14.967L141.398,51.115ZM133.227,14.967L106.375,14.967L106.375,51.115L112.675,51.115L112.675,36.397L130.904,36.397L130.904,30.665L112.675,30.665L112.675,20.699L133.227,20.699L133.227,14.967Z" style="fill:rgb(51,51,51);"/>
        <path d="M305.881,69.851L305.881,66.167L302.057,66.167L302.057,67.094L304.875,67.094L304.875,69.406C304.558,69.664 304.165,69.882 303.697,70.063C303.23,70.246 302.731,70.336 302.202,70.336C301.638,70.336 301.131,70.239 300.681,70.044C300.23,69.851 299.847,69.58 299.529,69.236C299.212,68.891 298.967,68.484 298.795,68.009C298.623,67.538 298.537,67.021 298.537,66.465C298.537,65.945 298.625,65.451 298.802,64.988C298.978,64.522 299.221,64.119 299.529,63.775C299.838,63.431 300.209,63.156 300.641,62.953C301.073,62.749 301.545,62.648 302.057,62.648C302.383,62.648 302.681,62.674 302.95,62.727C303.219,62.78 303.466,62.853 303.691,62.946C303.916,63.039 304.126,63.149 304.319,63.277C304.514,63.405 304.699,63.548 304.875,63.706L305.551,62.913C305.321,62.718 305.085,62.544 304.843,62.39C304.6,62.236 304.34,62.105 304.062,61.999C303.784,61.894 303.484,61.814 303.162,61.761C302.84,61.708 302.484,61.682 302.097,61.682C301.399,61.682 300.767,61.812 300.197,62.073C299.629,62.332 299.142,62.683 298.735,63.124C298.33,63.565 298.015,64.077 297.789,64.66C297.564,65.242 297.452,65.85 297.452,66.486C297.452,67.147 297.561,67.769 297.776,68.351C297.992,68.933 298.306,69.441 298.716,69.873C299.126,70.305 299.62,70.645 300.197,70.892C300.775,71.139 301.431,71.262 302.163,71.262C302.948,71.262 303.655,71.123 304.287,70.845C304.917,70.57 305.449,70.237 305.881,69.851ZM292.516,69.264L286.68,61.84L285.7,61.84L285.7,71.104L286.719,71.104L286.719,63.508L292.7,71.104L293.534,71.104L293.534,61.84L292.516,61.84L292.516,69.264ZM280.234,61.84L280.234,71.104L281.28,71.104L281.28,61.84L280.234,61.84ZM273.353,62.806L276.463,62.806L276.463,61.84L269.197,61.84L269.197,62.806L272.308,62.806L272.308,71.104L273.353,71.104L273.353,62.806ZM261.284,71.104L267.543,71.104L267.543,70.137L262.329,70.137L262.329,61.84L261.284,61.84L261.284,71.104ZM257.101,61.84L256.056,61.84L256.056,67.226C256.056,68.241 255.805,69.004 255.302,69.515C254.799,70.027 254.119,70.284 253.264,70.284C252.373,70.284 251.678,70.014 251.18,69.476C250.681,68.938 250.432,68.166 250.432,67.161L250.432,61.84L249.387,61.84L249.387,67.226C249.387,67.879 249.479,68.457 249.664,68.96C249.85,69.462 250.112,69.884 250.451,70.224C250.791,70.563 251.197,70.819 251.669,70.991C252.142,71.164 252.664,71.249 253.237,71.249C253.819,71.249 254.347,71.164 254.818,70.991C255.29,70.819 255.696,70.561 256.036,70.217C256.376,69.873 256.638,69.445 256.823,68.933C257.009,68.421 257.101,67.827 257.101,67.147L257.101,61.84ZM240.162,64.145C240.162,63.933 240.209,63.735 240.302,63.549C240.394,63.365 240.526,63.204 240.698,63.072C240.87,62.939 241.078,62.833 241.32,62.753C241.563,62.674 241.834,62.635 242.134,62.635C242.61,62.635 243.067,62.714 243.504,62.872C243.94,63.032 244.375,63.288 244.808,63.64L245.416,62.833C244.939,62.458 244.447,62.176 243.94,61.989C243.434,61.801 242.84,61.708 242.16,61.708C241.72,61.708 241.313,61.772 240.943,61.9C240.572,62.028 240.251,62.205 239.978,62.432C239.704,62.657 239.492,62.923 239.342,63.232C239.192,63.541 239.117,63.883 239.117,64.253C239.117,64.642 239.179,64.977 239.303,65.259C239.426,65.543 239.617,65.79 239.874,66.002C240.129,66.214 240.454,66.395 240.849,66.544C241.241,66.695 241.704,66.83 242.233,66.944C242.721,67.05 243.12,67.161 243.436,67.275C243.749,67.389 243.993,67.517 244.17,67.659C244.349,67.799 244.472,67.956 244.543,68.128C244.613,68.302 244.648,68.498 244.648,68.719C244.648,69.196 244.461,69.58 244.086,69.873C243.711,70.164 243.211,70.31 242.584,70.31C241.94,70.31 241.371,70.202 240.877,69.985C240.383,69.769 239.894,69.441 239.408,68.999L238.76,69.767C239.315,70.268 239.9,70.638 240.513,70.876C241.126,71.117 241.804,71.236 242.544,71.236C243.003,71.236 243.427,71.174 243.814,71.05C244.203,70.927 244.534,70.75 244.81,70.519C245.085,70.289 245.301,70.012 245.458,69.685C245.614,69.359 245.693,68.996 245.693,68.598C245.693,67.883 245.449,67.322 244.959,66.915C244.47,66.51 243.709,66.19 242.677,65.96C242.165,65.855 241.746,65.742 241.42,65.623C241.093,65.504 240.838,65.372 240.652,65.226C240.467,65.081 240.339,64.919 240.269,64.741C240.198,64.564 240.162,64.366 240.162,64.145ZM234.009,69.264L228.173,61.84L227.193,61.84L227.193,71.104L228.213,71.104L228.213,63.508L234.193,71.104L235.027,71.104L235.027,61.84L234.009,61.84L234.009,69.264ZM222.19,66.486C222.19,67.014 222.101,67.511 221.919,67.974C221.738,68.437 221.489,68.84 221.172,69.185C220.854,69.529 220.473,69.8 220.027,69.998C219.581,70.197 219.094,70.296 218.565,70.296C218.035,70.296 217.548,70.195 217.103,69.992C216.657,69.789 216.271,69.515 215.944,69.171C215.618,68.828 215.364,68.421 215.184,67.955C215.003,67.487 214.913,66.989 214.913,66.459C214.913,65.929 215.003,65.433 215.184,64.97C215.364,64.507 215.614,64.103 215.932,63.759C216.249,63.415 216.631,63.144 217.076,62.946C217.521,62.747 218.009,62.648 218.538,62.648C219.067,62.648 219.555,62.749 220.001,62.953C220.446,63.156 220.832,63.428 221.158,63.773C221.485,64.117 221.738,64.522 221.919,64.99C222.101,65.457 222.19,65.956 222.19,66.486ZM223.275,66.459C223.275,65.815 223.163,65.205 222.938,64.626C222.713,64.048 222.394,63.541 221.979,63.105C221.564,62.667 221.068,62.322 220.49,62.066C219.912,61.81 219.271,61.682 218.565,61.682C217.859,61.682 217.215,61.812 216.633,62.073C216.051,62.332 215.553,62.683 215.138,63.124C214.723,63.565 214.401,64.075 214.172,64.653C213.942,65.231 213.827,65.841 213.827,66.486C213.827,67.129 213.94,67.741 214.165,68.318C214.39,68.896 214.71,69.403 215.124,69.84C215.539,70.277 216.035,70.622 216.613,70.878C217.19,71.134 217.833,71.262 218.538,71.262C219.244,71.262 219.889,71.132 220.471,70.872C221.053,70.612 221.551,70.261 221.966,69.82C222.381,69.379 222.702,68.87 222.932,68.291C223.161,67.714 223.275,67.103 223.275,66.459ZM210.969,69.634L210.28,68.96C209.84,69.383 209.39,69.712 208.931,69.946C208.472,70.179 207.925,70.296 207.29,70.296C206.778,70.296 206.304,70.197 205.867,69.998C205.431,69.8 205.052,69.529 204.729,69.185C204.407,68.84 204.156,68.435 203.976,67.967C203.794,67.499 203.704,66.997 203.704,66.459C203.704,65.92 203.794,65.42 203.976,64.956C204.156,64.494 204.407,64.09 204.729,63.747C205.052,63.402 205.431,63.133 205.867,62.939C206.304,62.745 206.778,62.648 207.29,62.648C207.925,62.648 208.47,62.767 208.924,63.005C209.379,63.244 209.805,63.548 210.201,63.918L210.916,63.151C210.687,62.93 210.448,62.73 210.201,62.548C209.954,62.368 209.686,62.213 209.395,62.085C209.103,61.957 208.787,61.859 208.448,61.788C208.108,61.717 207.727,61.682 207.304,61.682C206.624,61.682 205.998,61.808 205.424,62.059C204.851,62.31 204.356,62.655 203.942,63.091C203.527,63.528 203.203,64.038 202.97,64.62C202.735,65.202 202.619,65.824 202.619,66.486C202.619,67.156 202.735,67.782 202.97,68.365C203.203,68.947 203.527,69.452 203.942,69.879C204.356,70.307 204.847,70.645 205.411,70.892C205.976,71.139 206.593,71.262 207.264,71.262C207.688,71.262 208.07,71.223 208.415,71.143C208.759,71.064 209.081,70.954 209.381,70.812C209.681,70.671 209.961,70.501 210.221,70.303C210.481,70.105 210.73,69.882 210.969,69.634ZM195.182,61.84L188.485,61.84L188.485,71.104L195.247,71.104L195.247,70.151L189.53,70.151L189.53,66.909L194.586,66.909L194.586,65.956L189.53,65.956L189.53,62.793L195.182,62.793L195.182,61.84ZM183.496,64.653C183.496,64.953 183.437,65.224 183.317,65.462C183.198,65.703 183.033,65.903 182.818,66.066C182.607,66.229 182.355,66.358 182.063,66.446C181.771,66.534 181.453,66.578 181.107,66.578L178.256,66.578L178.256,62.806L181.12,62.806C181.872,62.806 182.457,62.967 182.872,63.291C183.288,63.614 183.496,64.068 183.496,64.653ZM184.872,71.104L182.027,67.322C182.389,67.259 182.724,67.154 183.033,67.003C183.342,66.854 183.608,66.666 183.833,66.441C184.058,66.216 184.232,65.952 184.355,65.647C184.479,65.343 184.541,64.997 184.541,64.609C184.541,64.194 184.462,63.815 184.303,63.475C184.145,63.135 183.919,62.844 183.628,62.602C183.337,62.359 182.986,62.171 182.576,62.039C182.166,61.907 181.705,61.84 181.193,61.84L177.21,61.84L177.21,71.104L178.256,71.104L178.256,67.504L180.902,67.504L183.588,71.104L184.872,71.104ZM171.056,67.729L166.835,67.729L168.952,63.005L171.056,67.729ZM169.455,61.775L168.476,61.775L164.255,71.104L165.326,71.104L166.425,68.656L171.466,68.656L172.552,71.104L173.676,71.104L169.455,61.775ZM152.953,69.555L150.306,61.84L149.168,61.84L152.477,71.169L153.35,71.169L155.903,63.654L158.444,71.169L159.331,71.169L162.639,61.84L161.541,61.84L158.895,69.555L156.354,61.814L155.493,61.814L152.953,69.555ZM143.094,62.806L146.203,62.806L146.203,61.84L138.938,61.84L138.938,62.806L142.048,62.806L142.048,71.104L143.094,71.104L143.094,62.806ZM135.868,61.84L129.212,61.84L129.212,71.104L130.257,71.104L130.257,67.068L135.272,67.068L135.272,66.115L130.257,66.115L130.257,62.806L135.868,62.806L135.868,61.84ZM124.208,66.486C124.208,67.014 124.118,67.511 123.938,67.974C123.757,68.437 123.507,68.84 123.19,69.185C122.873,69.529 122.491,69.8 122.045,69.998C121.6,70.197 121.112,70.296 120.583,70.296C120.054,70.296 119.566,70.195 119.121,69.992C118.675,69.789 118.29,69.515 117.963,69.171C117.637,68.828 117.383,68.421 117.202,67.955C117.021,67.487 116.931,66.989 116.931,66.459C116.931,65.929 117.021,65.433 117.202,64.97C117.383,64.507 117.632,64.103 117.95,63.759C118.267,63.415 118.649,63.144 119.094,62.946C119.54,62.747 120.027,62.648 120.557,62.648C121.086,62.648 121.573,62.749 122.019,62.953C122.464,63.156 122.851,63.428 123.177,63.773C123.503,64.117 123.757,64.522 123.938,64.99C124.118,65.457 124.208,65.956 124.208,66.486ZM125.294,66.459C125.294,65.815 125.182,65.205 124.957,64.626C124.731,64.048 124.412,63.541 123.997,63.105C123.583,62.667 123.086,62.322 122.508,62.066C121.931,61.81 121.289,61.682 120.583,61.682C119.877,61.682 119.233,61.812 118.651,62.073C118.069,62.332 117.57,62.683 117.156,63.124C116.741,63.565 116.419,64.075 116.19,64.653C115.96,65.231 115.846,65.841 115.846,66.486C115.846,67.129 115.958,67.741 116.183,68.318C116.408,68.896 116.728,69.403 117.143,69.84C117.557,70.277 118.053,70.622 118.631,70.878C119.209,71.134 119.851,71.262 120.557,71.262C121.262,71.262 121.906,71.132 122.489,70.872C123.071,70.612 123.569,70.261 123.984,69.82C124.398,69.379 124.72,68.87 124.95,68.291C125.179,67.714 125.294,67.103 125.294,66.459ZM106.887,64.145C106.887,63.933 106.933,63.735 107.025,63.549C107.118,63.365 107.25,63.204 107.422,63.072C107.595,62.939 107.802,62.833 108.044,62.753C108.287,62.674 108.559,62.635 108.858,62.635C109.334,62.635 109.791,62.714 110.228,62.872C110.665,63.032 111.099,63.288 111.531,63.64L112.14,62.833C111.664,62.458 111.172,62.176 110.665,61.989C110.157,61.801 109.564,61.708 108.885,61.708C108.443,61.708 108.038,61.772 107.667,61.9C107.297,62.028 106.975,62.205 106.702,62.432C106.428,62.657 106.216,62.923 106.066,63.232C105.916,63.541 105.841,63.883 105.841,64.253C105.841,64.642 105.903,64.977 106.026,65.259C106.15,65.543 106.342,65.79 106.598,66.002C106.854,66.214 107.178,66.395 107.573,66.544C107.965,66.695 108.428,66.83 108.958,66.944C109.445,67.05 109.844,67.161 110.159,67.275C110.473,67.389 110.718,67.517 110.894,67.659C111.072,67.799 111.196,67.956 111.267,68.128C111.337,68.302 111.373,68.498 111.373,68.719C111.373,69.196 111.185,69.58 110.81,69.873C110.435,70.164 109.935,70.31 109.308,70.31C108.664,70.31 108.095,70.202 107.601,69.985C107.107,69.769 106.618,69.441 106.132,68.999L105.484,69.767C106.04,70.268 106.624,70.638 107.237,70.876C107.85,71.117 108.527,71.236 109.269,71.236C109.727,71.236 110.15,71.174 110.539,71.05C110.927,70.927 111.258,70.75 111.533,70.519C111.809,70.289 112.025,70.012 112.182,69.685C112.338,69.359 112.418,68.996 112.418,68.598C112.418,67.883 112.173,67.322 111.683,66.915C111.194,66.51 110.433,66.19 109.401,65.96C108.889,65.855 108.47,65.742 108.144,65.623C107.817,65.504 107.562,65.372 107.376,65.226C107.191,65.081 107.063,64.919 106.993,64.741C106.922,64.564 106.887,64.366 106.887,64.145Z" style="fill:rgb(51,51,51);"/>
    </g>
</svg>
