<?xml version="1.0" encoding="UTF-8" standalone="no"?>
<!DOCTYPE svg PUBLIC "-//W3C//DTD SVG 1.1//EN" "http://www.w3.org/Graphics/SVG/1.1/DTD/svg11.dtd">
<svg width="100%" height="100%" viewBox="0 0 3841 1209" version="1.1" xmlns="http://www.w3.org/2000/svg" xmlns:xlink="http://www.w3.org/1999/xlink" xml:space="preserve" xmlns:serif="http://www.serif.com/" style="fill-rule:evenodd;clip-rule:evenodd;stroke-linecap:round;stroke-linejoin:round;stroke-miterlimit:1.5;">
    <g transform="matrix(1,0,0,1,0.5,-560.73)">
        <g id="Layer1" transform="matrix(1,0,0,1,9.09495e-13,561.23)">
            <path d="M3840,1207.74L0,1207.74L0,94.208L1920,768.454C1920,768.454 3840,94.208 3840,94.208L3840,1207.74Z" style="fill:white;"/>
        </g>
        <g id="Layer2" transform="matrix(1,0,0,1,9.09495e-13,561.23)">
            <path d="M0,0L1920,678.524L3840,0L3840,90.997L1920,768.454L0,94.208L0,0Z" style="fill:none;stroke:rgb(102,102,102);stroke-width:1px;"/>
            <g transform="matrix(1,0,0,0.276385,0,556.065)">
                <path d="M1920,2160L1920,768.454" style="fill:none;stroke:rgb(102,102,102);stroke-width:1.36px;"/>
            </g>
            <g transform="matrix(1,0,0,1,-7.33775,-74.3351)">
                <path d="M887.012,1227.39L2966.42,1227.39" style="fill:none;stroke:rgb(102,102,102);stroke-width:1px;"/>
            </g>
        </g>
        <g transform="matrix(0.96691,0,0,1.26997,62.9128,573.271)">
            <g id="Layer3">
                <g>
                    <g transform="matrix(1.03389,0.27703,7.21645e-16,0.753978,-65.0658,64.7001)">
                        <rect x="0" y="0" width="1920" height="119.154" style="fill:rgb(0,173,254);fill-opacity:0.28;"/>
                    </g>
                    <g transform="matrix(-1.03456,0.277208,-3.85803e-15,0.734124,3906.35,64.7162)">
                        <rect x="0" y="0" width="1920" height="119.154" style="fill:rgb(0,173,254);fill-opacity:0.28;"/>
                    </g>
                </g>
            </g>
        </g>
    </g>
</svg>
