<?xml version="1.0" encoding="UTF-8" standalone="no"?>
<!DOCTYPE svg PUBLIC "-//W3C//DTD SVG 1.1//EN" "http://www.w3.org/Graphics/SVG/1.1/DTD/svg11.dtd">
<svg width="100%" height="100%" viewBox="0 0 306 85" version="1.1" xmlns="http://www.w3.org/2000/svg" xmlns:xlink="http://www.w3.org/1999/xlink" xml:space="preserve" xmlns:serif="http://www.serif.com/" style="fill-rule:evenodd;clip-rule:evenodd;stroke-linejoin:round;stroke-miterlimit:2;">
    <g transform="matrix(1,0,0,1,-27.06,-137.804)">
        <g transform="matrix(1,0,0,1,60.439,172.52)">
            <path d="M0,14.961L20.651,-5.69C24.315,-9.354 24.315,-15.35 20.651,-19.015L13.17,-26.495L-7.48,-5.844C-11.354,-1.972 -11.147,3.816 -7.481,7.481L-6.114,8.848C-7.129,5.058 -6.012,2.116 -2.767,-1.13L13.17,-17.067L15.936,-14.3C16.999,-13.238 16.999,-11.467 15.936,-10.404L-4.715,10.247C-8.38,13.912 -8.38,19.906 -4.715,23.572L13.17,41.456L20.651,33.976C24.315,30.311 24.315,24.315 20.651,20.651L16.91,16.909L20.578,13.24C24.451,9.366 24.244,3.58 20.578,-0.085L19.211,-1.452C20.227,2.337 19.11,5.278 15.864,8.524L13.504,10.886L7.48,16.91L15.936,25.365C16.999,26.429 16.999,28.198 15.936,29.261L13.17,32.027L0,18.857C-1.063,17.794 -1.063,16.025 0,14.961M8.817,-34.716C20.468,-34.716 31.019,-29.992 38.654,-22.357C46.29,-14.722 51.013,-4.171 51.013,7.481C51.013,19.132 46.29,29.683 38.654,37.317C31.019,44.953 20.468,49.677 8.817,49.677C-2.834,49.677 -13.385,44.953 -21.021,37.317C-28.655,29.683 -33.379,19.132 -33.379,7.481C-33.379,-4.171 -28.655,-14.722 -21.021,-22.357C-13.385,-29.992 -2.834,-34.716 8.817,-34.716" style="fill:rgb(0,173,254);"/>
        </g>
        <g transform="matrix(1,0,0,1,325.748,163.316)">
            <path d="M0,13.84L-19.321,-11.153L-25.2,-11.153L-25.2,24.994L-18.9,24.994L-18.9,-0.722L0.989,24.994L6.3,24.994L6.3,-11.153L0,-11.153L0,13.84ZM-42.356,24.994L-36.056,24.994L-36.056,-11.153L-42.356,-11.153L-42.356,24.994ZM-58.119,0.646C-58.119,2.514 -58.79,4.003 -60.142,5.105C-61.484,6.215 -63.3,6.766 -65.58,6.766L-74.901,6.766L-74.901,-5.421L-65.632,-5.421C-63.248,-5.421 -61.397,-4.913 -60.09,-3.889C-58.773,-2.874 -58.119,-1.359 -58.119,0.646M-50.527,24.994L-60.287,11.31C-59.014,10.965 -57.852,10.475 -56.802,9.838C-55.752,9.201 -54.849,8.426 -54.091,7.514C-53.333,6.602 -52.739,5.552 -52.31,4.364C-51.879,3.176 -51.664,1.825 -51.664,0.311C-51.664,-1.445 -51.974,-3.037 -52.594,-4.466C-53.213,-5.895 -54.1,-7.099 -55.253,-8.081C-56.406,-9.062 -57.817,-9.819 -59.487,-10.353C-61.157,-10.886 -63.024,-11.153 -65.09,-11.153L-81.201,-11.153L-81.201,24.994L-74.901,24.994L-74.901,12.394L-66.923,12.394L-58.016,24.994L-50.527,24.994ZM-96.705,6.972C-96.705,8.728 -97.006,10.389 -97.609,11.955C-98.211,13.522 -99.046,14.882 -100.113,16.035C-101.181,17.188 -102.463,18.1 -103.961,18.772C-105.458,19.443 -107.102,19.778 -108.892,19.778C-110.682,19.778 -112.335,19.434 -113.85,18.745C-115.364,18.057 -116.664,17.128 -117.748,15.957C-118.833,14.787 -119.676,13.418 -120.278,11.852C-120.881,10.286 -121.183,8.625 -121.183,6.869C-121.183,5.113 -120.881,3.452 -120.278,1.885C-119.676,0.319 -118.841,-1.041 -117.774,-2.194C-116.707,-3.347 -115.425,-4.26 -113.927,-4.931C-112.43,-5.602 -110.785,-5.937 -108.995,-5.937C-107.205,-5.937 -105.553,-5.594 -104.038,-4.905C-102.523,-4.216 -101.224,-3.287 -100.139,-2.117C-99.055,-0.946 -98.211,0.423 -97.609,1.989C-97.006,3.555 -96.705,5.216 -96.705,6.972M-90.044,6.869C-90.044,4.321 -90.509,1.912 -91.438,-0.361C-92.367,-2.633 -93.658,-4.612 -95.311,-6.299C-96.964,-7.986 -98.943,-9.32 -101.249,-10.301C-103.556,-11.282 -106.104,-11.773 -108.892,-11.773C-111.681,-11.773 -114.228,-11.274 -116.534,-10.275C-118.841,-9.277 -120.838,-7.926 -122.524,-6.222C-124.212,-4.517 -125.52,-2.53 -126.449,-0.258C-127.379,2.015 -127.844,4.424 -127.844,6.972C-127.844,9.52 -127.379,11.929 -126.449,14.201C-125.52,16.474 -124.229,18.453 -122.576,20.14C-120.924,21.827 -118.944,23.161 -116.638,24.142C-114.331,25.123 -111.784,25.613 -108.995,25.613C-106.207,25.613 -103.659,25.114 -101.353,24.116C-99.046,23.118 -97.05,21.767 -95.362,20.063C-93.676,18.359 -92.367,16.37 -91.438,14.098C-90.509,11.826 -90.044,9.416 -90.044,6.869M-157.29,24.994L-131.987,24.994L-131.987,19.262L-150.99,19.262L-150.99,-11.153L-157.29,-11.153L-157.29,24.994ZM-165.461,-11.153L-192.313,-11.153L-192.313,24.994L-186.014,24.994L-186.014,10.277L-167.785,10.277L-167.785,4.545L-186.014,4.545L-186.014,-5.421L-165.461,-5.421L-165.461,-11.153Z" style="fill:rgb(51,51,51);"/>
        </g>
        <g transform="matrix(1,0,0,1,332.94,200.289)">
            <path d="M0,6.758L0,3.074L-3.824,3.074L-3.824,4.001L-1.006,4.001L-1.006,6.313C-1.323,6.571 -1.716,6.789 -2.184,6.97C-2.65,7.153 -3.149,7.243 -3.679,7.243C-4.243,7.243 -4.75,7.146 -5.2,6.951C-5.65,6.758 -6.034,6.487 -6.352,6.143C-6.669,5.798 -6.914,5.391 -7.086,4.916C-7.258,4.445 -7.344,3.928 -7.344,3.372C-7.344,2.852 -7.256,2.358 -7.079,1.895C-6.903,1.429 -6.66,1.026 -6.352,0.682C-6.043,0.338 -5.672,0.063 -5.24,-0.14C-4.808,-0.344 -4.336,-0.445 -3.824,-0.445C-3.498,-0.445 -3.2,-0.419 -2.931,-0.366C-2.662,-0.313 -2.415,-0.24 -2.189,-0.147C-1.965,-0.054 -1.755,0.056 -1.562,0.184C-1.367,0.312 -1.182,0.455 -1.006,0.613L-0.33,-0.18C-0.56,-0.375 -0.796,-0.549 -1.038,-0.703C-1.281,-0.857 -1.541,-0.988 -1.819,-1.094C-2.097,-1.199 -2.396,-1.279 -2.719,-1.332C-3.041,-1.385 -3.396,-1.411 -3.784,-1.411C-4.481,-1.411 -5.114,-1.281 -5.684,-1.02C-6.252,-0.761 -6.739,-0.41 -7.146,0.031C-7.551,0.472 -7.866,0.984 -8.092,1.567C-8.316,2.149 -8.429,2.757 -8.429,3.393C-8.429,4.054 -8.32,4.676 -8.104,5.258C-7.889,5.84 -7.575,6.348 -7.165,6.78C-6.755,7.212 -6.261,7.552 -5.684,7.799C-5.105,8.046 -4.45,8.169 -3.718,8.169C-2.933,8.169 -2.226,8.03 -1.594,7.752C-0.964,7.477 -0.432,7.144 0,6.758M-13.365,6.171L-19.201,-1.253L-20.181,-1.253L-20.181,8.011L-19.162,8.011L-19.162,0.415L-13.181,8.011L-12.347,8.011L-12.347,-1.253L-13.365,-1.253L-13.365,6.171ZM-25.646,8.011L-24.6,8.011L-24.6,-1.253L-25.646,-1.253L-25.646,8.011ZM-32.528,-0.287L-29.418,-0.287L-29.418,-1.253L-36.684,-1.253L-36.684,-0.287L-33.573,-0.287L-33.573,8.011L-32.528,8.011L-32.528,-0.287ZM-44.597,8.011L-38.338,8.011L-38.338,7.044L-43.552,7.044L-43.552,-1.253L-44.597,-1.253L-44.597,8.011ZM-48.779,-1.253L-49.825,-1.253L-49.825,4.133C-49.825,5.148 -50.076,5.911 -50.579,6.422C-51.082,6.934 -51.762,7.191 -52.617,7.191C-53.508,7.191 -54.203,6.921 -54.701,6.383C-55.2,5.845 -55.449,5.073 -55.449,4.068L-55.449,-1.253L-56.494,-1.253L-56.494,4.133C-56.494,4.786 -56.401,5.364 -56.217,5.867C-56.031,6.369 -55.769,6.791 -55.43,7.131C-55.09,7.47 -54.684,7.726 -54.212,7.898C-53.739,8.07 -53.217,8.156 -52.644,8.156C-52.062,8.156 -51.534,8.07 -51.063,7.898C-50.591,7.726 -50.185,7.468 -49.845,7.124C-49.505,6.78 -49.243,6.352 -49.058,5.84C-48.872,5.328 -48.779,4.734 -48.779,4.054L-48.779,-1.253ZM-65.719,1.052C-65.719,0.84 -65.672,0.642 -65.579,0.456C-65.487,0.272 -65.354,0.111 -65.183,-0.021C-65.011,-0.154 -64.803,-0.26 -64.561,-0.34C-64.317,-0.419 -64.047,-0.458 -63.747,-0.458C-63.271,-0.458 -62.813,-0.379 -62.377,-0.221C-61.94,-0.061 -61.506,0.195 -61.073,0.547L-60.465,-0.26C-60.941,-0.635 -61.434,-0.917 -61.94,-1.104C-62.447,-1.292 -63.041,-1.385 -63.721,-1.385C-64.161,-1.385 -64.567,-1.321 -64.938,-1.193C-65.309,-1.065 -65.63,-0.888 -65.903,-0.661C-66.177,-0.436 -66.389,-0.17 -66.539,0.139C-66.688,0.448 -66.764,0.79 -66.764,1.16C-66.764,1.549 -66.702,1.884 -66.578,2.166C-66.455,2.45 -66.264,2.697 -66.007,2.909C-65.752,3.121 -65.427,3.302 -65.032,3.451C-64.64,3.602 -64.177,3.737 -63.647,3.851C-63.16,3.957 -62.761,4.068 -62.445,4.182C-62.132,4.296 -61.888,4.424 -61.711,4.566C-61.532,4.706 -61.409,4.863 -61.338,5.035C-61.268,5.209 -61.232,5.405 -61.232,5.626C-61.232,6.103 -61.42,6.487 -61.795,6.78C-62.17,7.071 -62.67,7.217 -63.297,7.217C-63.94,7.217 -64.51,7.109 -65.004,6.892C-65.498,6.676 -65.987,6.348 -66.473,5.906L-67.121,6.674C-66.565,7.175 -65.98,7.545 -65.368,7.783C-64.755,8.024 -64.077,8.143 -63.337,8.143C-62.878,8.143 -62.454,8.081 -62.066,7.957C-61.678,7.834 -61.347,7.657 -61.071,7.426C-60.796,7.196 -60.58,6.919 -60.423,6.592C-60.267,6.266 -60.188,5.903 -60.188,5.505C-60.188,4.79 -60.432,4.229 -60.922,3.822C-61.411,3.417 -62.172,3.097 -63.204,2.867C-63.716,2.762 -64.135,2.649 -64.461,2.53C-64.788,2.411 -65.043,2.279 -65.229,2.133C-65.414,1.987 -65.542,1.826 -65.612,1.648C-65.683,1.471 -65.719,1.273 -65.719,1.052M-71.872,6.171L-77.708,-1.253L-78.688,-1.253L-78.688,8.011L-77.668,8.011L-77.668,0.415L-71.688,8.011L-70.854,8.011L-70.854,-1.253L-71.872,-1.253L-71.872,6.171ZM-83.69,3.393C-83.69,3.921 -83.78,4.418 -83.962,4.881C-84.143,5.344 -84.392,5.747 -84.709,6.092C-85.026,6.436 -85.408,6.707 -85.854,6.905C-86.3,7.104 -86.787,7.203 -87.315,7.203C-87.846,7.203 -88.333,7.102 -88.778,6.899C-89.224,6.696 -89.609,6.422 -89.937,6.078C-90.263,5.735 -90.517,5.328 -90.697,4.862C-90.878,4.394 -90.968,3.896 -90.968,3.366C-90.968,2.836 -90.878,2.34 -90.697,1.877C-90.517,1.414 -90.267,1.01 -89.949,0.666C-89.632,0.322 -89.25,0.051 -88.805,-0.147C-88.359,-0.346 -87.872,-0.445 -87.343,-0.445C-86.813,-0.445 -86.326,-0.344 -85.88,-0.14C-85.435,0.063 -85.049,0.335 -84.723,0.68C-84.396,1.024 -84.143,1.429 -83.962,1.897C-83.78,2.364 -83.69,2.863 -83.69,3.393M-82.605,3.366C-82.605,2.722 -82.718,2.112 -82.942,1.533C-83.168,0.955 -83.487,0.448 -83.902,0.012C-84.316,-0.426 -84.813,-0.771 -85.391,-1.027C-85.969,-1.283 -86.61,-1.411 -87.315,-1.411C-88.021,-1.411 -88.666,-1.281 -89.248,-1.02C-89.83,-0.761 -90.328,-0.41 -90.743,0.031C-91.158,0.472 -91.479,0.982 -91.709,1.56C-91.938,2.138 -92.054,2.748 -92.054,3.393C-92.054,4.036 -91.94,4.648 -91.716,5.225C-91.491,5.803 -91.171,6.31 -90.757,6.747C-90.342,7.184 -89.846,7.529 -89.268,7.785C-88.69,8.041 -88.048,8.169 -87.343,8.169C-86.637,8.169 -85.992,8.039 -85.41,7.779C-84.828,7.519 -84.33,7.168 -83.915,6.727C-83.5,6.286 -83.179,5.777 -82.949,5.198C-82.72,4.621 -82.605,4.01 -82.605,3.366M-94.912,6.541L-95.601,5.867C-96.041,6.29 -96.491,6.619 -96.95,6.853C-97.409,7.086 -97.956,7.203 -98.591,7.203C-99.103,7.203 -99.577,7.104 -100.014,6.905C-100.45,6.707 -100.829,6.436 -101.151,6.092C-101.474,5.747 -101.725,5.342 -101.905,4.874C-102.087,4.406 -102.177,3.904 -102.177,3.366C-102.177,2.827 -102.087,2.327 -101.905,1.863C-101.725,1.401 -101.474,0.997 -101.151,0.654C-100.829,0.309 -100.45,0.04 -100.014,-0.154C-99.577,-0.348 -99.103,-0.445 -98.591,-0.445C-97.956,-0.445 -97.411,-0.326 -96.957,-0.088C-96.502,0.151 -96.076,0.455 -95.68,0.825L-94.965,0.058C-95.194,-0.163 -95.433,-0.363 -95.68,-0.545C-95.927,-0.725 -96.195,-0.88 -96.486,-1.008C-96.778,-1.136 -97.094,-1.234 -97.433,-1.305C-97.772,-1.376 -98.154,-1.411 -98.577,-1.411C-99.257,-1.411 -99.883,-1.285 -100.457,-1.034C-101.03,-0.783 -101.524,-0.438 -101.938,-0.002C-102.354,0.435 -102.678,0.945 -102.911,1.527C-103.146,2.109 -103.262,2.731 -103.262,3.393C-103.262,4.063 -103.146,4.689 -102.911,5.272C-102.678,5.854 -102.354,6.359 -101.938,6.786C-101.524,7.214 -101.034,7.552 -100.47,7.799C-99.905,8.046 -99.288,8.169 -98.617,8.169C-98.193,8.169 -97.811,8.13 -97.466,8.05C-97.122,7.971 -96.8,7.861 -96.5,7.719C-96.2,7.578 -95.92,7.408 -95.66,7.21C-95.399,7.012 -95.15,6.789 -94.912,6.541M-110.699,-1.253L-117.396,-1.253L-117.396,8.011L-110.634,8.011L-110.634,7.058L-116.351,7.058L-116.351,3.816L-111.295,3.816L-111.295,2.863L-116.351,2.863L-116.351,-0.3L-110.699,-0.3L-110.699,-1.253ZM-122.385,1.56C-122.385,1.86 -122.444,2.131 -122.563,2.369C-122.683,2.61 -122.848,2.81 -123.063,2.973C-123.273,3.136 -123.525,3.265 -123.818,3.353C-124.109,3.441 -124.428,3.485 -124.773,3.485L-127.625,3.485L-127.625,-0.287L-124.761,-0.287C-124.009,-0.287 -123.424,-0.126 -123.009,0.198C-122.593,0.521 -122.385,0.975 -122.385,1.56M-121.009,8.011L-123.854,4.229C-123.492,4.166 -123.157,4.061 -122.848,3.91C-122.539,3.761 -122.272,3.573 -122.048,3.348C-121.823,3.123 -121.648,2.859 -121.525,2.554C-121.401,2.25 -121.34,1.904 -121.34,1.516C-121.34,1.101 -121.419,0.722 -121.578,0.382C-121.736,0.042 -121.962,-0.249 -122.253,-0.491C-122.544,-0.734 -122.895,-0.922 -123.305,-1.054C-123.715,-1.186 -124.176,-1.253 -124.688,-1.253L-128.671,-1.253L-128.671,8.011L-127.625,8.011L-127.625,4.411L-124.979,4.411L-122.293,8.011L-121.009,8.011ZM-134.825,4.636L-139.046,4.636L-136.929,-0.088L-134.825,4.636ZM-136.426,-1.318L-137.405,-1.318L-141.626,8.011L-140.555,8.011L-139.456,5.563L-134.415,5.563L-133.329,8.011L-132.205,8.011L-136.426,-1.318ZM-152.928,6.462L-155.575,-1.253L-156.712,-1.253L-153.404,8.076L-152.531,8.076L-149.978,0.561L-147.437,8.076L-146.55,8.076L-143.242,-1.253L-144.34,-1.253L-146.986,6.462L-149.527,-1.279L-150.388,-1.279L-152.928,6.462ZM-162.787,-0.287L-159.678,-0.287L-159.678,-1.253L-166.942,-1.253L-166.942,-0.287L-163.833,-0.287L-163.833,8.011L-162.787,8.011L-162.787,-0.287ZM-170.013,-1.253L-176.669,-1.253L-176.669,8.011L-175.624,8.011L-175.624,3.975L-170.608,3.975L-170.608,3.022L-175.624,3.022L-175.624,-0.287L-170.013,-0.287L-170.013,-1.253ZM-181.672,3.393C-181.672,3.921 -181.763,4.418 -181.943,4.881C-182.124,5.344 -182.374,5.747 -182.691,6.092C-183.008,6.436 -183.39,6.707 -183.835,6.905C-184.281,7.104 -184.769,7.203 -185.298,7.203C-185.827,7.203 -186.314,7.102 -186.76,6.899C-187.206,6.696 -187.591,6.422 -187.918,6.078C-188.244,5.735 -188.498,5.328 -188.679,4.862C-188.86,4.394 -188.95,3.896 -188.95,3.366C-188.95,2.836 -188.86,2.34 -188.679,1.877C-188.498,1.414 -188.249,1.01 -187.931,0.666C-187.614,0.322 -187.232,0.051 -186.787,-0.147C-186.341,-0.346 -185.854,-0.445 -185.324,-0.445C-184.795,-0.445 -184.308,-0.344 -183.862,-0.14C-183.417,0.063 -183.03,0.335 -182.704,0.68C-182.377,1.024 -182.124,1.429 -181.943,1.897C-181.763,2.364 -181.672,2.863 -181.672,3.393M-180.587,3.366C-180.587,2.722 -180.699,2.112 -180.924,1.533C-181.149,0.955 -181.469,0.448 -181.884,0.012C-182.298,-0.426 -182.794,-0.771 -183.373,-1.027C-183.95,-1.283 -184.592,-1.411 -185.298,-1.411C-186.003,-1.411 -186.647,-1.281 -187.229,-1.02C-187.812,-0.761 -188.311,-0.41 -188.725,0.031C-189.14,0.472 -189.462,0.982 -189.691,1.56C-189.92,2.138 -190.035,2.748 -190.035,3.393C-190.035,4.036 -189.923,4.648 -189.698,5.225C-189.473,5.803 -189.153,6.31 -188.738,6.747C-188.324,7.184 -187.828,7.529 -187.25,7.785C-186.672,8.041 -186.03,8.169 -185.324,8.169C-184.619,8.169 -183.975,8.039 -183.392,7.779C-182.81,7.519 -182.312,7.168 -181.897,6.727C-181.482,6.286 -181.161,5.777 -180.931,5.198C-180.702,4.621 -180.587,4.01 -180.587,3.366M-198.994,1.052C-198.994,0.84 -198.948,0.642 -198.855,0.456C-198.763,0.272 -198.63,0.111 -198.458,-0.021C-198.286,-0.154 -198.079,-0.26 -197.836,-0.34C-197.594,-0.419 -197.322,-0.458 -197.022,-0.458C-196.546,-0.458 -196.09,-0.379 -195.653,-0.221C-195.216,-0.061 -194.782,0.195 -194.35,0.547L-193.741,-0.26C-194.217,-0.635 -194.709,-0.917 -195.216,-1.104C-195.724,-1.292 -196.317,-1.385 -196.996,-1.385C-197.437,-1.385 -197.843,-1.321 -198.214,-1.193C-198.584,-1.065 -198.906,-0.888 -199.179,-0.661C-199.453,-0.436 -199.665,-0.17 -199.815,0.139C-199.965,0.448 -200.04,0.79 -200.04,1.16C-200.04,1.549 -199.978,1.884 -199.854,2.166C-199.731,2.45 -199.539,2.697 -199.283,2.909C-199.027,3.121 -198.703,3.302 -198.308,3.451C-197.916,3.602 -197.453,3.737 -196.923,3.851C-196.436,3.957 -196.037,4.068 -195.722,4.182C-195.408,4.296 -195.163,4.424 -194.987,4.566C-194.809,4.706 -194.685,4.863 -194.614,5.035C-194.543,5.209 -194.508,5.405 -194.508,5.626C-194.508,6.103 -194.696,6.487 -195.071,6.78C-195.446,7.071 -195.946,7.217 -196.573,7.217C-197.217,7.217 -197.786,7.109 -198.28,6.892C-198.774,6.676 -199.263,6.348 -199.749,5.906L-200.397,6.674C-199.841,7.175 -199.257,7.545 -198.644,7.783C-198.031,8.024 -197.354,8.143 -196.612,8.143C-196.154,8.143 -195.73,8.081 -195.342,7.957C-194.954,7.834 -194.623,7.657 -194.348,7.426C-194.072,7.196 -193.856,6.919 -193.699,6.592C-193.542,6.266 -193.463,5.903 -193.463,5.505C-193.463,4.79 -193.708,4.229 -194.198,3.822C-194.687,3.417 -195.448,3.097 -196.48,2.867C-196.992,2.762 -197.411,2.649 -197.737,2.53C-198.064,2.411 -198.319,2.279 -198.505,2.133C-198.69,1.987 -198.818,1.826 -198.888,1.648C-198.959,1.471 -198.994,1.273 -198.994,1.052" style="fill:rgb(51,51,51);"/>
        </g>
    </g>
</svg>
